<svg 
version="1.1"
 id="Layer_1" 
 xmlns="http://www.w3.org/2000/svg" 
 xmlns:xlink="http://www.w3.org/1999/xlink" 
 x="0px" 
 y="0px"
 
	 width="100%" 
	 viewBox="0 0 500 500" 
	 enable-background="new 0 0 500 500" 
	 xml:space="preserve">
<path 
fill="#000000" 
opacity="1.000000" 
stroke="none" 
	d="
M275.000000,501.000000 
	C183.333359,501.000000 92.166710,501.000000 1.000049,501.000000 
	C1.000033,334.333405 1.000033,167.666794 1.000016,1.000138 
	C167.666565,1.000092 334.333130,1.000092 500.999756,1.000046 
	C500.999847,167.666519 500.999847,334.333038 500.999939,500.999786 
	C425.833344,501.000000 350.666656,501.000000 275.000000,501.000000 
M142.049194,248.532578 
	C142.344955,248.739456 142.640717,248.946335 142.995728,249.873703 
	C147.312134,257.293884 151.628555,264.714081 156.004486,272.852875 
	C159.649521,278.948181 163.294540,285.043518 167.243729,291.758606 
	C167.936050,292.462280 168.838058,293.052673 169.288681,293.886902 
	C174.535187,303.599792 179.713654,313.349487 184.954773,323.039856 
	C184.954773,323.039856 184.897400,323.005768 185.071411,323.536926 
	C185.380234,323.726990 185.689056,323.917053 186.004562,324.004059 
	C186.004562,324.004059 185.901489,323.997253 186.055069,324.533783 
	C186.355484,324.737396 186.655899,324.940979 187.002075,325.867401 
	C189.136887,329.878479 191.146988,333.962402 193.435883,337.883514 
	C196.832977,343.703125 200.427505,349.407532 204.241821,355.784241 
	C207.592422,362.101532 210.721680,368.550232 214.368942,374.691345 
	C216.935944,379.013580 220.207184,382.917542 223.042114,387.733337 
	C225.315125,392.011200 227.520477,396.326691 229.876205,400.558502 
	C233.881424,407.753387 238.228271,414.769623 241.965408,422.098633 
	C245.108841,428.263275 250.130524,431.836426 256.523773,432.886200 
	C264.171783,434.142059 269.586700,430.567200 272.783600,423.412506 
	C275.508789,417.313477 273.420441,409.789337 268.024109,404.323730 
	C267.695007,403.844879 267.365906,403.365997 266.975250,402.439362 
	C266.975250,402.439362 266.846558,402.006073 266.994141,401.303619 
	C266.696808,400.498871 266.399475,399.694092 266.009735,399.001648 
	C266.009735,399.001648 266.109955,398.894287 265.807343,398.269287 
	C259.912842,388.498566 254.018341,378.727844 248.017273,368.234985 
	C242.299561,358.492645 236.581848,348.750305 230.895798,338.472107 
	C230.604813,338.283905 230.313843,338.095673 230.044662,337.968506 
	C230.044662,337.968506 230.094864,337.927460 230.022568,337.213379 
	C228.696106,335.099518 227.369629,332.985657 225.899185,330.427673 
	C225.716568,330.145020 225.457642,329.988831 225.012085,329.251221 
	C222.667099,324.866180 220.411957,320.429688 217.942642,316.115814 
	C216.514755,313.621246 214.741669,311.324280 213.024139,308.323608 
	C212.706528,307.848633 212.388916,307.373657 212.038971,306.971405 
	C212.038971,306.971405 212.106476,306.929230 212.014832,306.208221 
	C206.725693,297.120483 201.436554,288.032715 195.812698,278.313690 
	C191.918533,271.523438 188.024353,264.733154 183.825790,257.303162 
	C181.578827,253.329788 179.406723,249.311691 177.065933,245.394394 
	C174.160934,240.532913 171.116302,235.754852 168.020889,230.450150 
	C167.967300,230.291260 167.913727,230.132385 167.884216,229.464554 
	C167.614685,229.274429 167.345169,229.084305 167.002777,228.179398 
	C163.608612,222.454971 160.214462,216.730530 156.739471,210.314819 
	C153.831161,205.286179 150.985092,200.220200 147.996735,195.239594 
	C145.111008,190.430054 142.078537,185.708542 139.004379,180.223953 
	C137.323120,177.084946 135.744781,173.885406 133.940811,170.818588 
	C129.030762,162.471222 124.025276,154.180008 118.997383,145.155228 
	C117.881569,143.190598 116.810577,141.198883 115.642014,139.266159 
	C111.126534,131.797806 106.579910,124.348274 101.760841,116.262840 
	C97.689857,108.879478 93.532478,101.542061 89.574120,94.098801 
	C86.159752,87.678421 80.274483,84.839729 73.741852,85.276161 
	C67.011673,85.725784 62.207451,90.237473 59.386021,97.181458 
	C59.312332,97.776665 59.238640,98.371864 59.024555,99.758453 
	C59.406353,101.505463 59.788151,103.252464 60.048244,105.729797 
	C65.662834,115.834480 71.277420,125.939163 77.088890,136.538422 
	C77.380203,136.727524 77.671516,136.916611 78.029564,137.550125 
	C78.029564,137.550125 78.177162,137.974594 78.249535,138.669846 
	C79.533089,140.921677 80.767372,143.203354 82.109161,145.419922 
	C86.684784,152.978638 91.298256,160.514420 95.981972,168.673218 
	C96.295593,169.147751 96.609215,169.622269 96.969978,170.000427 
	C96.969978,170.000427 96.903336,170.085480 97.003601,170.802063 
	C98.381172,173.365707 99.649025,175.995956 101.157310,178.480240 
	C105.341232,185.371567 109.625244,192.202133 114.008354,199.538223 
	C114.057716,199.697830 114.107079,199.857437 114.109314,200.538193 
	C114.385284,200.735199 114.661263,200.932190 115.003548,201.585709 
	C115.003548,201.585709 115.151283,202.022705 115.117401,202.530151 
	C115.382248,202.727005 115.647095,202.923859 115.980339,203.832275 
	C118.359970,207.894623 120.739601,211.956955 123.075241,216.553802 
	C123.359985,216.751907 123.644737,216.950012 124.090500,217.584976 
	C124.274994,217.864197 124.533821,218.019745 124.985321,218.778214 
	C130.299622,227.894501 135.613937,237.010788 141.008820,246.575974 
	C141.008820,246.575974 141.138474,247.013229 141.091965,247.548279 
	C141.381592,247.741013 141.671204,247.933746 141.996796,248.033005 
	C141.996796,248.033005 141.903275,247.997147 142.049194,248.532578 
M351.085876,158.528519 
	C351.390656,158.716568 351.695465,158.904617 351.978577,159.025009 
	C351.978577,159.025009 351.911011,159.046967 352.000214,159.724213 
	C352.646210,160.842621 353.292206,161.961044 353.970123,163.020630 
	C353.970123,163.020630 353.907074,162.998260 354.090546,163.519669 
	C354.394531,163.711731 354.698547,163.903793 354.981873,164.033096 
	C354.981873,164.033096 354.924622,164.066025 355.017029,164.788544 
	C356.484680,167.497879 357.867401,170.257462 359.435333,172.907471 
	C364.986816,182.290329 370.601562,191.635742 376.152252,201.506912 
	C376.426727,201.693146 376.701233,201.879379 376.992279,202.004242 
	C376.992279,202.004242 376.947388,202.049271 377.207001,202.645615 
	C378.124878,203.117233 379.042786,203.588837 379.993256,204.010010 
	C379.993256,204.010010 379.933289,204.012680 380.106506,204.525955 
	C380.405243,204.713028 380.703949,204.900101 380.976746,205.028427 
	C380.976746,205.028427 380.930023,205.072510 381.243805,205.687012 
	C382.145203,205.822800 383.046631,205.958572 383.983459,206.030701 
	C383.983459,206.030701 383.917023,206.060562 384.364563,206.753036 
	C387.268738,206.511810 390.172913,206.270584 393.816132,206.003830 
	C400.355988,203.628632 406.784149,195.197296 404.666534,190.057953 
	C401.508942,182.394760 396.997925,175.289261 392.979004,167.357651 
	C392.690399,166.892578 392.401794,166.427521 392.005737,165.324341 
	C391.612091,164.580673 391.218445,163.837021 390.769226,162.394119 
	C387.187988,156.569534 383.606720,150.744934 379.824677,144.382797 
	C379.485962,143.927811 379.147217,143.472809 378.944122,142.363251 
	C378.307434,141.541245 377.670746,140.719238 376.970337,139.181137 
	C373.910248,133.610046 371.260986,127.756157 367.675262,122.546898 
	C364.043640,117.270981 359.009308,113.050209 351.983368,114.127327 
	C345.183014,115.169861 339.617096,118.380234 337.342529,126.227234 
	C337.283081,127.145378 337.223663,128.063522 337.032684,129.775482 
	C337.077515,130.844315 337.122314,131.913147 337.267456,133.702545 
	C340.914825,140.138474 344.562164,146.574402 348.160004,153.518707 
	C348.430603,153.709671 348.701233,153.900650 349.049103,154.553497 
	C349.049103,154.553497 349.188782,155.000488 349.124664,155.515808 
	C349.397400,155.711197 349.670135,155.906586 350.027679,156.557877 
	C350.027679,156.557877 350.177185,156.996841 350.131897,157.519989 
	C350.413605,157.709656 350.695343,157.899323 350.986938,158.014481 
	C350.986938,158.014481 350.912415,158.004837 351.085876,158.528519 
M122.986641,99.014702 
	C122.986641,99.014702 122.913101,99.004463 123.094681,99.523582 
	C123.397003,99.715439 123.699326,99.907288 123.979568,100.032333 
	C123.979568,100.032333 123.913277,100.055908 124.001808,100.781441 
	C129.294907,110.538994 134.588013,120.296539 140.014694,130.756119 
	C141.651382,133.534668 143.288055,136.313202 144.972839,139.015549 
	C144.972839,139.015549 144.899384,139.067780 144.994583,139.787781 
	C147.623428,144.214752 150.252274,148.641724 152.989105,153.790161 
	C155.306778,157.558411 157.624466,161.326645 160.021271,165.565155 
	C160.021271,165.565155 160.157867,166.022049 160.114059,166.542389 
	C160.391159,166.736603 160.668259,166.930817 161.014648,167.580368 
	C161.014648,167.580368 161.156128,168.018677 161.122101,168.540939 
	C161.403320,168.731064 161.684540,168.921188 161.969208,169.049210 
	C161.969208,169.049210 161.920746,169.088013 162.005203,169.803085 
	C163.020630,171.621674 163.998367,173.462555 165.057968,175.255020 
	C169.745316,183.184280 174.456192,191.099625 179.119598,199.530655 
	C179.389908,199.722214 179.660217,199.913773 180.009964,200.558838 
	C180.009964,200.558838 180.156738,200.995224 180.163727,201.591492 
	C180.505219,202.071930 180.846710,202.552368 181.267807,203.667175 
	C181.659882,203.827225 182.051956,203.987274 182.410828,204.819809 
	C186.240158,211.228165 190.069489,217.636505 194.001770,224.767288 
	C197.374039,230.652039 200.743622,236.538330 204.119446,242.421036 
	C206.780350,247.057999 209.509293,251.186279 214.305588,254.511261 
	C219.094833,257.831329 223.012436,257.492889 227.404800,255.768646 
	C233.008987,253.568665 237.312027,249.986893 237.721634,242.682861 
	C237.704102,241.224991 238.196106,239.495117 237.586563,238.353287 
	C233.563141,230.816528 229.302841,223.406219 224.848862,215.367569 
	C223.977341,214.391464 222.878647,213.538849 222.270264,212.419708 
	C217.475540,203.599625 212.774475,194.728653 207.839874,185.341202 
	C207.508255,184.888031 207.176620,184.434845 206.952789,183.513641 
	C206.952789,183.513641 206.851013,183.044281 206.799271,182.358704 
	C205.460281,180.234634 204.121307,178.110565 202.655060,175.318634 
	C196.452347,164.842056 190.249634,154.365479 183.823181,143.361603 
	C183.493042,142.903885 183.162888,142.446182 182.876495,141.463776 
	C182.599045,141.263351 182.321594,141.062943 181.981003,140.144653 
	C177.345459,131.747009 172.709900,123.349365 167.963593,114.231400 
	C164.133423,107.194305 160.409805,100.096420 156.440628,93.138626 
	C153.036545,87.171425 149.601379,81.194122 145.735306,75.524490 
	C139.042435,65.709343 124.289368,67.359970 118.897278,77.976318 
	C114.946960,85.754013 118.308426,91.791084 122.139565,98.521591 
	C122.418449,98.710472 122.697334,98.899345 122.986641,99.014702 
M427.856812,107.479836 
	C427.577637,107.293427 427.298462,107.107010 426.949890,106.196030 
	C422.307587,97.990227 417.869659,89.659882 412.966248,81.613190 
	C407.930969,73.350082 393.531769,68.930176 385.378235,82.248978 
	C384.993439,83.517944 384.608673,84.786919 384.077545,86.789337 
	C384.112854,87.532974 384.148193,88.276619 384.038483,89.867088 
	C384.812592,93.156883 384.898254,96.828331 386.475250,99.673035 
	C395.159393,115.338310 404.140533,130.840866 413.163574,146.315414 
	C416.956116,152.819611 426.185150,155.163956 433.880707,151.911987 
	C440.050934,149.304611 444.597412,140.920624 441.872650,134.402740 
	C438.337982,125.947388 433.373596,118.089722 428.999390,109.998756 
	C428.999390,109.998756 429.029724,109.983879 428.978912,109.370323 
	C428.665771,108.909904 428.352631,108.449486 428.026062,107.980095 
	C428.026062,107.980095 428.015289,107.968277 427.856812,107.479836 
M325.002594,275.213562 
	C320.000183,266.818726 315.086853,258.368958 309.958649,250.051651 
	C307.302887,245.744293 299.631927,243.488907 294.766602,244.541885 
	C287.741547,246.062302 285.225769,251.734680 282.052795,257.919708 
	C281.135895,269.415405 289.743713,276.406525 294.980804,285.781494 
	C299.834198,294.562286 304.732697,303.318512 309.528748,312.130493 
	C314.763702,321.748932 325.586670,321.677948 331.051422,318.115356 
	C338.922424,312.984100 342.541779,304.519531 336.012543,294.153564 
	C332.375366,288.077209 328.738220,282.000824 325.002594,275.213562 
M329.256683,235.676010 
	C332.938446,242.017242 336.522583,248.417740 340.326996,254.684525 
	C344.976776,262.343842 349.828339,263.958191 358.216644,262.866943 
	C362.674377,262.286987 369.306274,257.697876 370.769348,249.634796 
	C371.236542,240.499466 365.226196,234.128876 361.000275,226.229584 
	C360.250122,225.271332 359.365784,224.389359 358.770935,223.342850 
	C353.832611,214.654510 348.820740,206.004150 344.082245,197.207047 
	C339.337341,188.398026 331.805603,185.349533 322.548950,189.015579 
	C317.475037,191.025055 310.308014,200.245056 314.019989,207.774048 
	C314.405853,209.004715 314.577515,210.360580 315.211884,211.446014 
	C319.815216,219.322220 324.511841,227.143890 329.256683,235.676010 
M229.030319,280.821228 
	C229.303070,283.049988 228.969910,285.603363 229.958466,287.448669 
	C233.368698,293.814392 237.240143,299.933014 240.994965,306.577576 
	C240.994965,306.577576 241.122742,306.994263 241.080109,307.540649 
	C241.371597,307.742523 241.663101,307.944366 242.265045,308.771698 
	C247.803162,318.203613 253.341293,327.635559 258.984985,337.783264 
	C261.661346,342.590271 264.154236,347.511383 267.056610,352.177826 
	C271.527985,359.366974 275.829376,366.738312 281.064209,373.350464 
	C284.842834,378.123352 292.852448,378.258942 298.259918,374.949493 
	C304.623566,371.054840 308.296692,364.351166 306.053223,358.568542 
	C303.683960,352.461639 300.154236,346.804962 297.013885,340.215607 
	C292.634918,332.937256 288.213776,325.683807 283.897095,318.368683 
	C282.097107,315.318420 280.519501,312.136932 278.787048,308.315094 
	C277.218689,305.654999 275.689575,302.970825 274.073456,300.340057 
	C271.117126,295.527771 268.109375,290.747101 265.002136,285.226959 
	C261.855713,280.157867 259.177490,274.706177 255.433685,270.125305 
	C251.544556,265.366547 245.520264,264.783600 240.074371,266.603333 
	C234.002655,268.632202 229.558548,272.870605 229.030319,280.821228 
z"/>
<path fill="#3BAAA7" opacity="1.000000" stroke="none" 
	d="
M122.178085,98.002975 
	C118.308426,91.791084 114.946960,85.754013 118.897278,77.976318 
	C124.289368,67.359970 139.042435,65.709343 145.735306,75.524490 
	C149.601379,81.194122 153.036545,87.171425 156.440628,93.138626 
	C160.409805,100.096420 164.133423,107.194305 167.798859,114.828720 
	C166.956879,117.180305 166.279617,118.934570 165.733002,120.350441 
	C156.684845,116.513741 147.883759,112.949814 139.234833,109.048584 
	C134.388458,106.862564 127.860764,107.127022 125.780853,100.466270 
	C125.686623,100.164513 124.559380,100.185333 123.913277,100.055908 
	C123.913277,100.055908 123.979568,100.032333 123.820381,99.871979 
	C123.411827,99.475906 123.162460,99.240189 122.913101,99.004463 
	C122.913101,99.004463 122.986641,99.014702 122.861626,98.860611 
	C122.568825,98.457413 122.382645,98.222893 122.178085,98.002975 
z"/>
<path fill="#92C75A" opacity="1.000000" stroke="none" 
	d="
M266.846558,402.006073 
	C266.846558,402.006073 266.975250,402.439362 267.086395,402.949158 
	C267.510315,403.955933 267.823059,404.452942 268.135803,404.949951 
	C273.420441,409.789337 275.508789,417.313477 272.783600,423.412506 
	C269.586700,430.567200 264.171783,434.142059 256.523773,432.886200 
	C250.130524,431.836426 245.108841,428.263275 241.965408,422.098633 
	C238.228271,414.769623 233.881424,407.753387 229.876205,400.558502 
	C227.520477,396.326691 225.315125,392.011200 223.460205,387.350159 
	C225.910889,386.593506 228.840210,385.191406 229.810150,386.036926 
	C232.881363,388.714294 235.399628,388.516876 238.770462,385.182861 
	C238.412766,387.954895 238.197800,389.620789 238.043808,390.814178 
	C242.733856,392.527618 246.961121,394.353485 251.352707,395.600891 
	C256.193115,396.975708 261.184387,397.819275 266.109955,398.894287 
	C266.109955,398.894287 266.009735,399.001648 266.056854,399.271667 
	C266.351501,400.363159 266.599030,401.184631 266.846558,402.006073 
z"/>
<path fill="#24A2BB" opacity="1.000000" stroke="none" 
	d="
M429.024658,109.974777 
	C433.373596,118.089722 438.337982,125.947388 441.872650,134.402740 
	C444.597412,140.920624 440.050934,149.304611 433.880707,151.911987 
	C426.185150,155.163956 416.956116,152.819611 413.163574,146.315414 
	C404.140533,130.840866 395.159393,115.338310 386.475250,99.673035 
	C384.898254,96.828331 384.812592,93.156883 384.273315,89.764587 
	C386.914124,94.635689 389.104706,99.732285 391.838013,104.518967 
	C392.851532,106.293915 394.965851,107.677887 396.876434,108.659683 
	C403.311737,111.966599 410.374207,114.306999 416.230713,118.399536 
	C420.320740,121.257652 423.875641,120.350601 427.288452,119.183884 
	C428.536865,118.757088 428.494965,114.487267 428.985321,111.959656 
	C429.109528,111.319588 429.017395,110.637543 429.024658,109.974777 
z"/>
<path fill="#199FC3" opacity="1.000000" stroke="none" 
	d="
M429.012024,109.986771 
	C429.017395,110.637543 429.109528,111.319588 428.985321,111.959656 
	C428.494965,114.487267 428.536865,118.757088 427.288452,119.183884 
	C423.875641,120.350601 420.320740,121.257652 416.230713,118.399536 
	C410.374207,114.306999 403.311737,111.966599 396.876434,108.659683 
	C394.965851,107.677887 392.851532,106.293915 391.838013,104.518967 
	C389.104706,99.732285 386.914124,94.635689 384.345825,89.341171 
	C384.148193,88.276619 384.112854,87.532974 384.430298,86.234016 
	C385.176697,84.420555 385.570312,83.162415 385.963928,81.904266 
	C393.531769,68.930176 407.930969,73.350082 412.966248,81.613190 
	C417.869659,89.659882 422.307587,97.990227 427.132111,106.749939 
	C427.524841,107.549721 427.758514,107.771194 428.015289,107.968277 
	C428.015289,107.968277 428.026062,107.980095 428.099609,108.258942 
	C428.458710,109.019821 428.744202,109.501854 429.029724,109.983879 
	C429.029724,109.983879 428.999390,109.998756 429.012024,109.986771 
z"/>
<path fill="#7CC06F" opacity="1.000000" stroke="none" 
	d="
M297.131439,340.951599 
	C300.154236,346.804962 303.683960,352.461639 306.053223,358.568542 
	C308.296692,364.351166 304.623566,371.054840 298.259918,374.949493 
	C292.852448,378.258942 284.842834,378.123352 281.064209,373.350464 
	C275.829376,366.738312 271.527985,359.366974 267.056610,352.177826 
	C264.154236,347.511383 261.661346,342.590271 259.239532,337.268982 
	C263.561920,333.788544 263.561920,333.788544 257.156921,328.940430 
	C262.288635,328.330444 266.199463,329.463318 268.568268,334.598358 
	C270.061432,337.835205 272.504364,339.955414 276.540375,337.199005 
	C277.544037,336.513580 279.619019,337.073944 281.087952,337.476349 
	C282.824493,337.952057 284.398895,338.990356 286.113617,339.581726 
	C288.800934,340.508514 291.546967,341.265045 294.268127,342.093658 
	C294.254456,342.537506 294.240784,342.981354 294.227142,343.425232 
	C295.195251,342.600677 296.163330,341.776154 297.131439,340.951599 
z"/>
<path fill="#8AC462" opacity="1.000000" stroke="none" 
	d="
M265.958649,398.581787 
	C261.184387,397.819275 256.193115,396.975708 251.352707,395.600891 
	C246.961121,394.353485 242.733856,392.527618 238.043808,390.814178 
	C238.197800,389.620789 238.412766,387.954895 238.770462,385.182861 
	C235.399628,388.516876 232.881363,388.714294 229.810150,386.036926 
	C228.840210,385.191406 225.910889,386.593506 223.521133,386.987610 
	C220.207184,382.917542 216.935944,379.013580 214.368942,374.691345 
	C210.721680,368.550232 207.592422,362.101532 204.198608,355.138428 
	C206.328690,350.699982 208.252823,352.236450 210.103561,354.785126 
	C211.315704,356.454376 212.491699,358.149872 213.683868,359.833649 
	C214.103729,359.601257 214.523575,359.368866 214.943420,359.136475 
	C215.229874,357.369446 215.516342,355.602417 215.836487,353.627563 
	C221.662689,356.752167 226.518280,360.497437 233.381912,359.752686 
	C235.742889,359.496521 238.510086,362.273468 240.971390,363.852356 
	C243.433807,365.431915 245.745865,367.245880 248.123825,368.957123 
	C254.018341,378.727844 259.912842,388.498566 265.958649,398.581787 
z"/>
<path fill="#81C269" opacity="1.000000" stroke="none" 
	d="
M248.070557,368.596069 
	C245.745865,367.245880 243.433807,365.431915 240.971390,363.852356 
	C238.510086,362.273468 235.742889,359.496521 233.381912,359.752686 
	C226.518280,360.497437 221.662689,356.752167 215.836487,353.627563 
	C215.516342,355.602417 215.229874,357.369446 214.943420,359.136475 
	C214.523575,359.368866 214.103729,359.601257 213.683868,359.833649 
	C212.491699,358.149872 211.315704,356.454376 210.103561,354.785126 
	C208.252823,352.236450 206.328690,350.699982 204.046692,354.826782 
	C200.427505,349.407532 196.832977,343.703125 193.435883,337.883514 
	C191.146988,333.962402 189.136887,329.878479 186.818420,325.301575 
	C186.390335,324.489563 186.145905,324.243408 185.901489,323.997253 
	C185.901489,323.997253 186.004562,324.004059 185.830688,323.859314 
	C185.403671,323.478271 185.150528,323.242035 184.897400,323.005768 
	C184.897400,323.005768 184.954773,323.039856 184.972336,322.688721 
	C186.176376,321.370056 187.357941,319.617310 188.550430,319.609833 
	C190.592178,319.597046 192.691193,320.546661 194.677979,321.319031 
	C204.556992,325.159576 214.137070,330.023438 225.122406,329.959137 
	C225.457642,329.988831 225.716568,330.145020 225.978409,331.027588 
	C227.403366,333.727509 228.749115,335.827484 230.094864,337.927460 
	C230.094864,337.927460 230.044662,337.968506 230.159790,338.132446 
	C230.450821,338.550568 230.647232,338.787750 230.864136,339.007965 
	C236.581848,348.750305 242.299561,358.492645 248.070557,368.596069 
z"/>
<path fill="#54B291" opacity="1.000000" stroke="none" 
	d="
M119.057610,145.866531 
	C124.025276,154.180008 129.030762,162.471222 133.940811,170.818588 
	C135.744781,173.885406 137.323120,177.084946 138.820236,180.779358 
	C137.542709,181.257187 135.615372,181.456436 135.483658,181.059631 
	C134.002533,176.597641 130.395508,177.278625 126.921288,176.904495 
	C122.708878,176.450882 118.143913,176.127914 114.490356,174.262314 
	C106.096649,169.976196 106.075211,169.558884 96.903336,170.085480 
	C96.903336,170.085480 96.969978,170.000427 96.874359,169.767822 
	C96.484917,169.043137 96.191101,168.551041 95.897285,168.058960 
	C91.298256,160.514420 86.684784,152.978638 82.109161,145.419922 
	C80.767372,143.203354 79.533089,140.921677 78.608856,138.323578 
	C83.120148,137.255722 86.830368,137.885422 90.827026,139.746429 
	C96.179169,142.238602 102.135002,143.420624 107.797035,145.270996 
	C109.145729,145.711777 110.587608,146.329193 111.592369,147.281387 
	C116.172447,151.621841 116.474701,151.609940 119.057610,145.866531 
z"/>
<path fill="#4CB098" opacity="1.000000" stroke="none" 
	d="
M119.027496,145.510880 
	C116.474701,151.609940 116.172447,151.621841 111.592369,147.281387 
	C110.587608,146.329193 109.145729,145.711777 107.797035,145.270996 
	C102.135002,143.420624 96.179169,142.238602 90.827026,139.746429 
	C86.830368,137.885422 83.120148,137.255722 78.572678,137.975952 
	C78.177162,137.974594 78.029564,137.550125 77.833130,137.135986 
	C77.388458,136.495850 77.140236,136.269852 76.892006,136.043854 
	C71.277420,125.939163 65.662834,115.834480 60.423439,105.473259 
	C62.555084,105.962662 64.258514,106.896164 66.080261,107.411072 
	C68.895271,108.206726 71.898430,108.418518 74.632355,109.403648 
	C82.358650,112.187706 89.950333,115.348129 97.697678,118.067947 
	C98.865211,118.477821 100.582108,117.322853 102.044884,116.891739 
	C106.579910,124.348274 111.126534,131.797806 115.642014,139.266159 
	C116.810577,141.198883 117.881569,143.190598 119.027496,145.510880 
z"/>
<path fill="#43AD9F" opacity="1.000000" stroke="none" 
	d="
M123.957542,100.418678 
	C124.559380,100.185333 125.686623,100.164513 125.780853,100.466270 
	C127.860764,107.127022 134.388458,106.862564 139.234833,109.048584 
	C147.883759,112.949814 156.684845,116.513741 165.733002,120.350441 
	C166.279617,118.934570 166.956879,117.180305 167.854233,115.188881 
	C172.709900,123.349365 177.345459,131.747009 182.130173,140.700607 
	C182.445541,141.514343 182.630005,141.758316 182.832733,141.988480 
	C183.162888,142.446182 183.493042,142.903885 183.881500,144.003754 
	C183.158051,148.304062 180.471436,148.566391 177.831985,147.448151 
	C172.245682,145.081390 166.756912,142.452621 161.366135,139.664520 
	C155.206818,136.478928 155.064438,136.392883 151.006378,141.886459 
	C149.005783,140.963089 146.952591,140.015427 144.899384,139.067780 
	C144.899384,139.067780 144.972839,139.015549 145.000427,138.686890 
	C145.537216,136.683182 146.046448,135.008133 146.695099,132.874405 
	C144.296143,131.881470 142.088623,130.967789 139.881104,130.054092 
	C134.588013,120.296539 129.294907,110.538994 123.957542,100.418678 
z"/>
<path fill="#74BD75" opacity="1.000000" stroke="none" 
	d="
M297.072662,340.583618 
	C296.163330,341.776154 295.195251,342.600677 294.227142,343.425232 
	C294.240784,342.981354 294.254456,342.537506 294.268127,342.093658 
	C291.546967,341.265045 288.800934,340.508514 286.113617,339.581726 
	C284.398895,338.990356 282.824493,337.952057 281.087952,337.476349 
	C279.619019,337.073944 277.544037,336.513580 276.540375,337.199005 
	C272.504364,339.955414 270.061432,337.835205 268.568268,334.598358 
	C266.199463,329.463318 262.288635,328.330444 257.156921,328.940430 
	C263.561920,333.788544 263.561920,333.788544 259.186768,336.911072 
	C253.341293,327.635559 247.803162,318.203613 241.987198,308.255859 
	C241.533310,307.476105 241.337769,307.227539 241.122742,306.994263 
	C241.122742,306.994263 240.994965,306.577576 241.030365,305.998535 
	C244.036331,300.867615 244.650818,300.981262 248.906479,305.770721 
	C252.556183,306.341919 254.799728,306.824677 257.068176,307.023804 
	C264.328217,307.661163 270.960999,315.238342 278.840759,309.015106 
	C280.519501,312.136932 282.097107,315.318420 283.897095,318.368683 
	C288.213776,325.683807 292.634918,332.937256 297.072662,340.583618 
z"/>
<path fill="#7ABF70" opacity="1.000000" stroke="none" 
	d="
M225.067245,329.605164 
	C214.137070,330.023438 204.556992,325.159576 194.677979,321.319031 
	C192.691193,320.546661 190.592178,319.597046 188.550430,319.609833 
	C187.357941,319.617310 186.176376,321.370056 184.950012,322.713501 
	C179.713654,313.349487 174.535187,303.599792 169.288681,293.886902 
	C168.838058,293.052673 167.936050,292.462280 167.107391,291.063934 
	C167.295151,289.056091 167.619247,287.742950 167.924561,286.505829 
	C168.978912,286.641541 169.362015,286.586060 169.621658,286.739441 
	C177.754700,291.545105 185.200562,298.093231 195.677490,296.927704 
	C195.945023,296.897949 196.400238,297.134399 196.515808,297.370209 
	C198.692963,301.813354 201.318878,298.835571 204.654099,296.984497 
	C204.423019,299.986389 204.261597,302.083374 204.202438,302.851898 
	C207.226410,304.411835 209.666443,305.670532 212.106476,306.929230 
	C212.106476,306.929230 212.038971,306.971405 212.129303,307.217590 
	C212.521072,307.955292 212.822510,308.446838 213.123947,308.938385 
	C214.741669,311.324280 216.514755,313.621246 217.942642,316.115814 
	C220.411957,320.429688 222.667099,324.866180 225.067245,329.605164 
z"/>
<path fill="#3AAAA8" opacity="1.000000" stroke="none" 
	d="
M393.062744,167.946487 
	C396.997925,175.289261 401.508942,182.394760 404.666534,190.057953 
	C406.784149,195.197296 400.355988,203.628632 392.988953,206.002838 
	C389.413544,206.021423 386.665283,206.041000 383.917023,206.060577 
	C383.917023,206.060562 383.983459,206.030701 383.870300,205.828400 
	C382.814758,205.441559 381.872375,205.257034 380.930023,205.072510 
	C380.930023,205.072510 380.976746,205.028427 380.825104,204.865265 
	C380.426758,204.472305 380.180023,204.242493 379.933289,204.012680 
	C379.933289,204.012680 379.993256,204.010010 379.846252,203.737427 
	C378.781952,202.992981 377.864685,202.521133 376.947388,202.049271 
	C376.947388,202.049271 376.992279,202.004242 376.869812,201.844711 
	C376.582977,201.438629 376.397980,201.208679 376.192322,200.995346 
	C370.601562,191.635742 364.986816,182.290329 359.435333,172.907471 
	C357.867401,170.257462 356.484680,167.497879 355.334808,164.449371 
	C357.055237,164.902252 358.877075,165.371506 359.782013,166.546768 
	C362.509796,170.089401 365.411316,172.318481 370.316437,171.306320 
	C371.976196,170.963821 374.657745,171.847488 375.753296,173.128128 
	C381.089355,179.365784 389.130035,177.385162 396.001495,180.175568 
	C395.752777,177.663605 394.886810,175.515091 394.228119,173.304825 
	C393.707550,171.558075 393.441711,169.735428 393.062744,167.946487 
z"/>
<path fill="#2BA5B4" opacity="1.000000" stroke="none" 
	d="
M378.808502,143.017822 
	C379.147217,143.472809 379.485962,143.927811 379.923279,145.052124 
	C380.366913,149.204941 380.711945,152.688416 381.057007,156.171906 
	C380.435822,156.349426 379.814606,156.526962 379.193420,156.704483 
	C378.065277,155.403458 377.057739,153.963608 375.770782,152.845383 
	C374.743744,151.953033 373.238739,150.705948 372.182465,150.900558 
	C365.807648,152.074966 361.119934,148.623123 356.262543,145.576920 
	C352.566864,143.259247 350.284393,138.545486 344.716705,139.304016 
	C343.648773,139.449524 342.275970,137.389038 341.050659,136.338257 
	C339.751862,135.224472 338.461304,134.101135 337.167145,132.981979 
	C337.122314,131.913147 337.077515,130.844315 337.251373,129.093445 
	C337.633728,127.571510 337.797394,126.731613 337.961029,125.891708 
	C339.617096,118.380234 345.183014,115.169861 351.983368,114.127327 
	C359.009308,113.050209 364.043640,117.270981 367.675262,122.546898 
	C371.260986,127.756157 373.910248,133.610046 377.030151,139.859924 
	C377.662811,141.365097 378.235657,142.191467 378.808502,143.017822 
z"/>
<path fill="#5BB58B" opacity="1.000000" stroke="none" 
	d="
M96.953468,170.443771 
	C106.075211,169.558884 106.096649,169.976196 114.490356,174.262314 
	C118.143913,176.127914 122.708878,176.450882 126.921288,176.904495 
	C130.395508,177.278625 134.002533,176.597641 135.483658,181.059631 
	C135.615372,181.456436 137.542709,181.257187 138.873322,181.141571 
	C142.078537,185.708542 145.111008,190.430054 147.996735,195.239594 
	C150.985092,200.220200 153.831161,205.286179 156.429443,210.614014 
	C154.047623,209.034668 151.975845,207.156113 149.188156,204.628403 
	C148.418991,206.101959 147.737000,207.408554 147.199310,208.438675 
	C141.358215,204.804474 136.288681,201.409470 130.991135,198.418289 
	C125.020782,195.047241 117.297562,195.510681 113.869705,199.056702 
	C109.625244,192.202133 105.341232,185.371567 101.157310,178.480240 
	C99.649025,175.995956 98.381172,173.365707 96.953468,170.443771 
z"/>
<path fill="#46AE9D" opacity="1.000000" stroke="none" 
	d="
M313.982635,207.017197 
	C310.308014,200.245056 317.475037,191.025055 322.548950,189.015579 
	C331.805603,185.349533 339.337341,188.398026 344.082245,197.207047 
	C348.820740,206.004150 353.832611,214.654510 358.770935,223.342850 
	C359.365784,224.389359 360.250122,225.271332 360.629456,226.600632 
	C358.787415,226.797577 356.957397,227.121979 355.905701,226.365005 
	C350.725128,222.636124 344.537994,222.423157 338.708893,220.942017 
	C337.317230,220.588409 336.050232,219.752594 334.661377,219.377380 
	C332.801178,218.874817 330.822998,218.775162 328.998352,218.184631 
	C327.337891,217.647247 324.597504,216.886475 324.430634,215.877304 
	C323.417267,209.749176 318.288330,208.956482 313.982635,207.017197 
z"/>
<path fill="#6DBB7B" opacity="1.000000" stroke="none" 
	d="
M278.813904,308.665100 
	C270.960999,315.238342 264.328217,307.661163 257.068176,307.023804 
	C254.799728,306.824677 252.556183,306.341919 248.906479,305.770721 
	C244.650818,300.981262 244.036331,300.867615 241.000854,305.782593 
	C237.240143,299.933014 233.368698,293.814392 229.958466,287.448669 
	C228.969910,285.603363 229.303070,283.049988 229.352463,280.219604 
	C230.783066,279.078674 231.891541,278.539337 233.010513,278.305695 
	C233.276123,279.372589 233.531219,280.133759 233.786301,280.894958 
	C234.136047,280.683441 234.485794,280.471954 234.835541,280.260468 
	C234.223694,279.506989 233.611847,278.753479 233.004150,277.606934 
	C233.817627,275.634857 234.626938,274.055817 235.436264,272.476807 
	C236.609879,273.990509 237.801498,275.490936 238.936737,277.032898 
	C239.098068,277.252014 238.985703,277.672638 238.737488,278.127441 
	C238.096436,279.002228 237.717896,279.749542 237.339355,280.496887 
	C237.676620,280.622375 238.013885,280.747894 238.351151,280.873413 
	C238.567444,279.915619 238.783722,278.957794 239.393463,278.013489 
	C244.750885,279.618134 249.999130,280.650391 254.585800,282.983337 
	C258.044495,284.742523 261.186035,286.411713 265.123077,285.953217 
	C268.109375,290.747101 271.117126,295.527771 274.073456,300.340057 
	C275.689575,302.970825 277.218689,305.654999 278.813904,308.665100 
z"/>
<path fill="#32A7AE" opacity="1.000000" stroke="none" 
	d="
M337.217285,133.342255 
	C338.461304,134.101135 339.751862,135.224472 341.050659,136.338257 
	C342.275970,137.389038 343.648773,139.449524 344.716705,139.304016 
	C350.284393,138.545486 352.566864,143.259247 356.262543,145.576920 
	C361.119934,148.623123 365.807648,152.074966 372.182465,150.900558 
	C373.238739,150.705948 374.743744,151.953033 375.770782,152.845383 
	C377.057739,153.963608 378.065277,155.403458 379.193420,156.704483 
	C379.814606,156.526962 380.435822,156.349426 381.057007,156.171906 
	C380.711945,152.688416 380.366913,149.204941 380.023682,145.320892 
	C383.606720,150.744934 387.187988,156.569534 390.674286,162.986130 
	C391.090607,164.372910 391.601898,165.167679 392.113190,165.962448 
	C392.401794,166.427521 392.690399,166.892578 393.020874,167.652069 
	C393.441711,169.735428 393.707550,171.558075 394.228119,173.304825 
	C394.886810,175.515091 395.752777,177.663605 396.001495,180.175568 
	C389.130035,177.385162 381.089355,179.365784 375.753296,173.128128 
	C374.657745,171.847488 371.976196,170.963821 370.316437,171.306320 
	C365.411316,172.318481 362.509796,170.089401 359.782013,166.546768 
	C358.877075,165.371506 357.055237,164.902252 355.288605,164.088120 
	C354.924622,164.066025 354.981873,164.033096 354.821350,163.869690 
	C354.409546,163.470261 354.158325,163.234268 353.907074,162.998260 
	C353.907074,162.998260 353.970123,163.020630 353.952759,162.691071 
	C353.260590,161.256653 352.585815,160.151810 351.911011,159.046967 
	C351.911011,159.046967 351.978577,159.025009 351.820007,158.865524 
	C351.411774,158.472305 351.162079,158.238571 350.912415,158.004837 
	C350.912415,158.004837 350.986938,158.014481 350.862366,157.859467 
	C350.569641,157.453751 350.382782,157.217880 350.177185,156.996841 
	C350.177185,156.996841 350.027679,156.557877 349.877625,156.135147 
	C349.569916,155.458511 349.390320,155.221207 349.188782,155.000488 
	C349.188782,155.000488 349.049103,154.553497 348.898499,154.132202 
	C348.586853,153.463196 348.407410,153.229675 348.209503,153.010330 
	C344.562164,146.574402 340.914825,140.138474 337.217285,133.342255 
z"/>
<path fill="#54B291" opacity="1.000000" stroke="none" 
	d="
M180.156738,200.995224 
	C180.156738,200.995224 180.009964,200.558838 179.856369,200.141785 
	C179.540115,199.475342 179.358704,199.240433 179.158539,199.020004 
	C174.456192,191.099625 169.745316,183.184280 165.057968,175.255020 
	C163.998367,173.462555 163.020630,171.621674 162.296082,169.526093 
	C165.739334,171.295654 169.414032,172.843216 171.940582,175.487701 
	C178.104141,181.938950 186.508316,183.097153 194.204620,185.980392 
	C196.029556,186.664078 198.018555,187.087189 199.641357,188.097244 
	C203.371140,190.418747 206.192108,190.212341 208.044571,185.873337 
	C212.774475,194.728653 217.475540,203.599625 222.270264,212.419708 
	C222.878647,213.538849 223.977341,214.391464 224.577148,215.665619 
	C223.810333,215.953949 223.263321,216.080139 222.827988,215.913879 
	C217.426041,213.850906 212.230011,212.059418 206.112137,211.694626 
	C200.845963,211.380615 194.967026,207.832230 190.953964,204.030365 
	C187.352448,200.618423 184.406174,199.750717 180.156738,200.995224 
z"/>
<path fill="#67B981" opacity="1.000000" stroke="none" 
	d="
M336.063324,294.866974 
	C342.541779,304.519531 338.922424,312.984100 331.051422,318.115356 
	C325.586670,321.677948 314.763702,321.748932 309.528748,312.130493 
	C304.732697,303.318512 299.834198,294.562286 295.315369,285.393982 
	C299.746002,285.877502 304.260071,285.934326 307.855804,287.780121 
	C316.795593,292.369171 326.266541,294.087799 336.063324,294.866974 
z"/>
<path fill="#4CB098" opacity="1.000000" stroke="none" 
	d="
M314.001312,207.395630 
	C318.288330,208.956482 323.417267,209.749176 324.430634,215.877304 
	C324.597504,216.886475 327.337891,217.647247 328.998352,218.184631 
	C330.822998,218.775162 332.801178,218.874817 334.661377,219.377380 
	C336.050232,219.752594 337.317230,220.588409 338.708893,220.942017 
	C344.537994,222.423157 350.725128,222.636124 355.905701,226.365005 
	C356.957397,227.121979 358.787415,226.797577 360.674561,226.964920 
	C365.226196,234.128876 371.236542,240.499466 370.009766,249.836685 
	C366.011932,249.035355 362.670044,248.277115 359.563324,246.962921 
	C356.166718,245.526077 353.365997,242.364441 349.014771,244.412201 
	C348.284271,244.755997 346.778564,243.473434 345.639526,242.924713 
	C340.151062,240.280731 334.665497,237.630692 329.178925,234.982819 
	C324.511841,227.143890 319.815216,219.322220 315.211884,211.446014 
	C314.577515,210.360580 314.405853,209.004715 314.001312,207.395630 
z"/>
<path fill="#67B981" opacity="1.000000" stroke="none" 
	d="
M140.928238,246.127075 
	C135.613937,237.010788 130.299622,227.894501 125.306442,218.327545 
	C131.956833,216.507065 137.052017,219.692276 142.577805,221.980789 
	C150.904556,225.429337 159.595718,227.998062 168.131973,230.940765 
	C171.116302,235.754852 174.160934,240.532913 177.065933,245.394394 
	C179.406723,249.311691 181.578827,253.329788 183.739014,257.853149 
	C182.588318,259.211182 181.524414,260.019196 180.185287,261.036224 
	C178.717178,253.965942 176.021500,251.617813 170.345612,250.086456 
	C161.118149,247.596863 152.029465,244.592957 142.184113,241.593445 
	C141.918900,242.550873 141.423569,244.338974 140.928238,246.127075 
z"/>
<path fill="#61B786" opacity="1.000000" stroke="none" 
	d="
M336.037933,294.510254 
	C326.266541,294.087799 316.795593,292.369171 307.855804,287.780121 
	C304.260071,285.934326 299.746002,285.877502 295.264435,285.023193 
	C289.743713,276.406525 281.135895,269.415405 282.368011,257.725342 
	C291.964172,262.367584 301.235657,267.222656 310.547028,271.999969 
	C311.177856,272.323608 312.442627,272.406677 312.846191,272.016266 
	C315.398590,269.546753 316.910828,270.909698 318.985016,272.900574 
	C320.549683,274.402405 323.028900,274.951355 325.101044,275.924469 
	C328.738220,282.000824 332.375366,288.077209 336.037933,294.510254 
z"/>
<path fill="#6DBB7B" opacity="1.000000" stroke="none" 
	d="
M140.968536,246.351532 
	C141.423569,244.338974 141.918900,242.550873 142.184113,241.593445 
	C152.029465,244.592957 161.118149,247.596863 170.345612,250.086456 
	C176.021500,251.617813 178.717178,253.965942 180.185287,261.036224 
	C181.524414,260.019196 182.588318,259.211182 183.891205,258.173035 
	C188.024353,264.733154 191.918533,271.523438 195.783081,278.846008 
	C194.996994,279.836273 193.956863,280.871490 193.528763,280.661163 
	C190.019363,278.936676 186.657120,276.916290 183.182983,275.115417 
	C180.602539,273.777802 178.269440,272.603424 180.944504,269.207336 
	C181.503677,268.497437 181.171188,267.085236 181.249588,265.996674 
	C178.337082,269.357727 175.941208,272.145752 171.339325,270.489410 
	C169.774460,269.926147 168.048355,269.582458 166.701965,268.681213 
	C161.557617,265.237671 158.541840,267.918243 155.944977,272.134247 
	C151.628555,264.714081 147.312134,257.293884 142.806824,249.310028 
	C142.379715,248.496628 142.141495,248.246887 141.903275,247.997147 
	C141.903275,247.997147 141.996796,248.033005 141.854279,247.884308 
	C141.539490,247.479858 141.348404,247.239075 141.138474,247.013229 
	C141.138474,247.013229 141.008820,246.575974 140.968536,246.351532 
z"/>
<path fill="#5BB58B" opacity="1.000000" stroke="none" 
	d="
M180.160233,201.293365 
	C184.406174,199.750717 187.352448,200.618423 190.953964,204.030365 
	C194.967026,207.832230 200.845963,211.380615 206.112137,211.694626 
	C212.230011,212.059418 217.426041,213.850906 222.827988,215.913879 
	C223.263321,216.080139 223.810333,215.953949 224.712585,215.959167 
	C229.302841,223.406219 233.563141,230.816528 237.586563,238.353287 
	C238.196106,239.495117 237.704102,241.224991 237.290482,242.578644 
	C234.765701,240.198654 232.672058,237.922897 230.578415,235.647125 
	C230.425385,236.043274 230.272339,236.439423 230.119308,236.835571 
	C227.879028,236.736755 224.617188,237.560501 223.561722,236.391724 
	C215.812088,227.810211 203.332535,230.667648 194.877304,224.102280 
	C194.664551,223.937088 194.229935,224.057602 193.898804,224.044861 
	C190.069489,217.636505 186.240158,211.228165 182.179474,204.341522 
	C181.694824,203.586426 181.441513,203.309616 181.188202,203.032791 
	C180.846710,202.552368 180.505219,202.071930 180.160233,201.293365 
z"/>
<path fill="#74BD75" opacity="1.000000" stroke="none" 
	d="
M155.974731,272.493561 
	C158.541840,267.918243 161.557617,265.237671 166.701965,268.681213 
	C168.048355,269.582458 169.774460,269.926147 171.339325,270.489410 
	C175.941208,272.145752 178.337082,269.357727 181.249588,265.996674 
	C181.171188,267.085236 181.503677,268.497437 180.944504,269.207336 
	C178.269440,272.603424 180.602539,273.777802 183.182983,275.115417 
	C186.657120,276.916290 190.019363,278.936676 193.528763,280.661163 
	C193.956863,280.871490 194.996994,279.836273 195.950439,279.161621 
	C201.436554,288.032715 206.725693,297.120483 212.060654,306.568726 
	C209.666443,305.670532 207.226410,304.411835 204.202438,302.851898 
	C204.261597,302.083374 204.423019,299.986389 204.654099,296.984497 
	C201.318878,298.835571 198.692963,301.813354 196.515808,297.370209 
	C196.400238,297.134399 195.945023,296.897949 195.677490,296.927704 
	C185.200562,298.093231 177.754700,291.545105 169.621658,286.739441 
	C169.362015,286.586060 168.978912,286.641541 167.924561,286.505829 
	C167.619247,287.742950 167.295151,289.056091 166.955322,290.754028 
	C163.294540,285.043518 159.649521,278.948181 155.974731,272.493561 
z"/>
<path fill="#61B786" opacity="1.000000" stroke="none" 
	d="
M168.076431,230.695465 
	C159.595718,227.998062 150.904556,225.429337 142.577805,221.980789 
	C137.052017,219.692276 131.956833,216.507065 125.247269,217.964264 
	C124.533821,218.019745 124.274994,217.864197 123.890160,217.168243 
	C123.520012,216.491547 123.329811,216.247482 123.119232,216.019302 
	C120.739601,211.956955 118.359970,207.894623 115.835358,203.283875 
	C115.529663,202.483521 115.349968,202.245941 115.151283,202.022705 
	C115.151283,202.022705 115.003548,201.585709 114.855164,201.162445 
	C114.541473,200.484634 114.358025,200.243927 114.156441,200.017044 
	C114.107079,199.857437 114.057716,199.697830 113.939026,199.297455 
	C117.297562,195.510681 125.020782,195.047241 130.991135,198.418289 
	C136.288681,201.409470 141.358215,204.804474 147.199310,208.438675 
	C147.737000,207.408554 148.418991,206.101959 149.188156,204.628403 
	C151.975845,207.156113 154.047623,209.034668 156.469849,210.959656 
	C160.214462,216.730530 163.608612,222.454971 167.156052,228.725677 
	C167.474930,229.519928 167.658554,229.753769 167.860168,229.973495 
	C167.913727,230.132385 167.967300,230.291260 168.076431,230.695465 
z"/>
<path fill="#46AE9D" opacity="1.000000" stroke="none" 
	d="
M101.902863,116.577286 
	C100.582108,117.322853 98.865211,118.477821 97.697678,118.067947 
	C89.950333,115.348129 82.358650,112.187706 74.632355,109.403648 
	C71.898430,108.418518 68.895271,108.206726 66.080261,107.411072 
	C64.258514,106.896164 62.555084,105.962662 60.484291,105.108093 
	C59.788151,103.252464 59.406353,101.505463 59.239914,99.124481 
	C59.618351,97.960388 59.781433,97.430260 59.944515,96.900131 
	C62.207451,90.237473 67.011673,85.725784 73.741852,85.276161 
	C80.274483,84.839729 86.159752,87.678421 89.574120,94.098801 
	C93.532478,101.542061 97.689857,108.879478 101.902863,116.577286 
z"/>
<path fill="#4CB098" opacity="1.000000" stroke="none" 
	d="
M144.946991,139.427780 
	C146.952591,140.015427 149.005783,140.963089 151.006378,141.886459 
	C155.064438,136.392883 155.206818,136.478928 161.366135,139.664520 
	C166.756912,142.452621 172.245682,145.081390 177.831985,147.448151 
	C180.471436,148.566391 183.158051,148.304062 183.993362,144.267395 
	C190.249634,154.365479 196.452347,164.842056 202.354385,175.640015 
	C201.105911,175.694504 199.758530,175.737595 199.273117,175.111938 
	C195.146011,169.792542 188.978989,168.230652 183.186539,165.785599 
	C175.676743,162.615662 168.418091,158.852905 160.989182,155.482300 
	C160.630646,155.319626 159.674179,156.474777 158.655212,156.958984 
	C156.503235,155.624054 154.692169,154.346375 152.881134,153.068710 
	C150.252274,148.641724 147.623428,144.214752 144.946991,139.427780 
z"/>
<path fill="#61B786" opacity="1.000000" stroke="none" 
	d="
M193.950287,224.406067 
	C194.229935,224.057602 194.664551,223.937088 194.877304,224.102280 
	C203.332535,230.667648 215.812088,227.810211 223.561722,236.391724 
	C224.617188,237.560501 227.879028,236.736755 230.119308,236.835571 
	C230.272339,236.439423 230.425385,236.043274 230.578415,235.647125 
	C232.672058,237.922897 234.765701,240.198654 236.964584,242.803024 
	C237.312027,249.986893 233.008987,253.568665 227.404800,255.768646 
	C223.012436,257.492889 219.094833,257.831329 214.305588,254.511261 
	C209.509293,251.186279 206.780350,247.057999 204.119446,242.421036 
	C200.743622,236.538330 197.374039,230.652039 193.950287,224.406067 
z"/>
<path fill="#4EB195" opacity="1.000000" stroke="none" 
	d="
M158.996155,157.016235 
	C159.674179,156.474777 160.630646,155.319626 160.989182,155.482300 
	C168.418091,158.852905 175.676743,162.615662 183.186539,165.785599 
	C188.978989,168.230652 195.146011,169.792542 199.273117,175.111938 
	C199.758530,175.737595 201.105911,175.694504 202.418030,175.973938 
	C204.121307,178.110565 205.460281,180.234634 206.766708,182.812225 
	C206.661819,183.518723 206.698761,183.757370 206.845001,183.981674 
	C207.176620,184.434845 207.508255,184.888031 207.942230,185.607269 
	C206.192108,190.212341 203.371140,190.418747 199.641357,188.097244 
	C198.018555,187.087189 196.029556,186.664078 194.204620,185.980392 
	C186.508316,183.097153 178.104141,181.938950 171.940582,175.487701 
	C169.414032,172.843216 165.739334,171.295654 162.253845,169.168549 
	C161.920746,169.088013 161.969208,169.049210 161.844589,168.888824 
	C161.549362,168.478088 161.361404,168.241501 161.156128,168.018677 
	C161.156128,168.018677 161.014648,167.580368 160.863739,167.158783 
	C160.547394,166.483643 160.362411,166.245255 160.157867,166.022049 
	C160.157867,166.022049 160.021271,165.565155 160.100784,165.015198 
	C159.785583,161.982254 159.390869,159.499237 158.996155,157.016235 
z"/>
<path fill="#5BB58B" opacity="1.000000" stroke="none" 
	d="
M325.051819,275.569031 
	C323.028900,274.951355 320.549683,274.402405 318.985016,272.900574 
	C316.910828,270.909698 315.398590,269.546753 312.846191,272.016266 
	C312.442627,272.406677 311.177856,272.323608 310.547028,271.999969 
	C301.235657,267.222656 291.964172,262.367584 282.433380,257.291473 
	C285.225769,251.734680 287.741547,246.062302 294.766602,244.541885 
	C299.631927,243.488907 307.302887,245.744293 309.958649,250.051651 
	C315.086853,258.368958 320.000183,266.818726 325.051819,275.569031 
z"/>
<path fill="#54B291" opacity="1.000000" stroke="none" 
	d="
M329.217804,235.329407 
	C334.665497,237.630692 340.151062,240.280731 345.639526,242.924713 
	C346.778564,243.473434 348.284271,244.755997 349.014771,244.412201 
	C353.365997,242.364441 356.166718,245.526077 359.563324,246.962921 
	C362.670044,248.277115 366.011932,249.035355 369.679077,250.051346 
	C369.306274,257.697876 362.674377,262.286987 358.216644,262.866943 
	C349.828339,263.958191 344.976776,262.343842 340.326996,254.684525 
	C336.522583,248.417740 332.938446,242.017242 329.217804,235.329407 
z"/>
<path fill="#67B981" opacity="1.000000" stroke="none" 
	d="
M265.062622,285.590088 
	C261.186035,286.411713 258.044495,284.742523 254.585800,282.983337 
	C249.999130,280.650391 244.750885,279.618134 239.393463,278.013489 
	C238.985703,277.672638 239.098068,277.252014 238.936737,277.032898 
	C237.801498,275.490936 236.609879,273.990509 235.436264,272.476807 
	C234.626938,274.055817 233.817627,275.634857 233.004150,277.606934 
	C231.891541,278.539337 230.783066,279.078674 229.416656,279.791626 
	C229.558548,272.870605 234.002655,268.632202 240.074371,266.603333 
	C245.520264,264.783600 251.544556,265.366547 255.433685,270.125305 
	C259.177490,274.706177 261.855713,280.157867 265.062622,285.590088 
z"/>
<path fill="#54B291" opacity="1.000000" stroke="none" 
	d="
M158.655228,156.958984 
	C159.390869,159.499237 159.785583,161.982254 160.061218,164.780060 
	C157.624466,161.326645 155.306778,157.558411 152.935120,153.429443 
	C154.692169,154.346375 156.503235,155.624054 158.655228,156.958984 
z"/>
<path fill="#4CB098" opacity="1.000000" stroke="none" 
	d="
M139.947906,130.405106 
	C142.088623,130.967789 144.296143,131.881470 146.695099,132.874405 
	C146.046448,135.008133 145.537216,136.683182 144.976379,138.724976 
	C143.288055,136.313202 141.651382,133.534668 139.947906,130.405106 
z"/>
<path fill="#7ABF70" opacity="1.000000" stroke="none" 
	d="
M230.058716,337.570435 
	C228.749115,335.827484 227.403366,333.727509 226.050385,331.249664 
	C227.369629,332.985657 228.696106,335.099518 230.058716,337.570435 
z"/>
<path fill="#46AE9D" opacity="1.000000" stroke="none" 
	d="
M384.140808,206.406799 
	C386.665283,206.041000 389.413544,206.021423 392.619446,206.015594 
	C390.172913,206.270584 387.268738,206.511810 384.140808,206.406799 
z"/>
<path fill="#24A2BB" opacity="1.000000" stroke="none" 
	d="
M385.671082,82.076622 
	C385.570312,83.162415 385.176697,84.420555 384.503479,85.867294 
	C384.608673,84.786919 384.993439,83.517944 385.671082,82.076622 
z"/>
<path fill="#3AAAA8" opacity="1.000000" stroke="none" 
	d="
M351.955627,159.385590 
	C352.585815,160.151810 353.260590,161.256653 353.936798,162.720490 
	C353.292206,161.961044 352.646210,160.842621 351.955627,159.385590 
z"/>
<path fill="#3AAAA8" opacity="1.000000" stroke="none" 
	d="
M392.059448,165.643402 
	C391.601898,165.167679 391.090607,164.372910 390.702087,163.335754 
	C391.218445,163.837021 391.612091,164.580673 392.059448,165.643402 
z"/>
<path fill="#32A7AE" opacity="1.000000" stroke="none" 
	d="
M378.876312,142.690536 
	C378.235657,142.191467 377.662811,141.365097 377.062012,140.217987 
	C377.670746,140.719238 378.307434,141.541245 378.876312,142.690536 
z"/>
<path fill="#46AE9D" opacity="1.000000" stroke="none" 
	d="
M377.077209,202.347443 
	C377.864685,202.521133 378.781952,202.992981 379.829956,203.762634 
	C379.042786,203.588837 378.124878,203.117233 377.077209,202.347443 
z"/>
<path fill="#46AE9D" opacity="1.000000" stroke="none" 
	d="
M381.086914,205.379761 
	C381.872375,205.257034 382.814758,205.441559 383.852570,205.860214 
	C383.046631,205.958572 382.145203,205.822800 381.086914,205.379761 
z"/>
<path fill="#8AC462" opacity="1.000000" stroke="none" 
	d="
M266.920349,401.654846 
	C266.599030,401.184631 266.351501,400.363159 266.103088,399.215515 
	C266.399475,399.694092 266.696808,400.498871 266.920349,401.654846 
z"/>
<path fill="#32A7AE" opacity="1.000000" stroke="none" 
	d="
M337.651794,126.059471 
	C337.797394,126.731613 337.633728,127.571510 337.317139,128.696533 
	C337.223663,128.063522 337.283081,127.145378 337.651794,126.059471 
z"/>
<path fill="#4CB098" opacity="1.000000" stroke="none" 
	d="
M59.665268,97.040794 
	C59.781433,97.430260 59.618351,97.960388 59.310108,98.728790 
	C59.238640,98.371864 59.312332,97.776665 59.665268,97.040794 
z"/>
<path fill="#8AC462" opacity="1.000000" stroke="none" 
	d="
M268.079956,404.636841 
	C267.823059,404.452942 267.510315,403.955933 267.117188,403.173035 
	C267.365906,403.365997 267.695007,403.844879 268.079956,404.636841 
z"/>
<path fill="#5BB58B" opacity="1.000000" stroke="none" 
	d="
M95.939629,168.366089 
	C96.191101,168.551041 96.484917,169.043137 96.850784,169.816010 
	C96.609215,169.622269 96.295593,169.147751 95.939629,168.366089 
z"/>
<path fill="#74BD75" opacity="1.000000" stroke="none" 
	d="
M213.074036,308.630981 
	C212.822510,308.446838 212.521072,307.955292 212.145462,307.181213 
	C212.388916,307.373657 212.706528,307.848633 213.074036,308.630981 
z"/>
<path fill="#24A2BB" opacity="1.000000" stroke="none" 
	d="
M429.004333,109.677101 
	C428.744202,109.501854 428.458710,109.019821 428.106323,108.263428 
	C428.352631,108.449486 428.665771,108.909904 429.004333,109.677101 
z"/>
<path fill="#7ABF70" opacity="1.000000" stroke="none" 
	d="
M184.984406,323.271362 
	C185.150528,323.242035 185.403671,323.478271 185.827332,323.910828 
	C185.689056,323.917053 185.380234,323.726990 184.984406,323.271362 
z"/>
<path fill="#7ABF70" opacity="1.000000" stroke="none" 
	d="
M185.978271,324.265503 
	C186.145905,324.243408 186.390335,324.489563 186.795532,324.940125 
	C186.655899,324.940979 186.355484,324.737396 185.978271,324.265503 
z"/>
<path fill="#6DBB7B" opacity="1.000000" stroke="none" 
	d="
M241.101425,307.267456 
	C241.337769,307.227539 241.533310,307.476105 241.831970,307.943115 
	C241.663101,307.944366 241.371597,307.742523 241.101425,307.267456 
z"/>
<path fill="#24A2BB" opacity="1.000000" stroke="none" 
	d="
M427.936035,107.724060 
	C427.758514,107.771194 427.524841,107.549721 427.166809,107.112221 
	C427.298462,107.107010 427.577637,107.293427 427.936035,107.724060 
z"/>
<path fill="#54B291" opacity="1.000000" stroke="none" 
	d="
M160.135956,166.282227 
	C160.362411,166.245255 160.547394,166.483643 160.829102,166.931122 
	C160.668259,166.930817 160.391159,166.736603 160.135956,166.282227 
z"/>
<path fill="#7ABF70" opacity="1.000000" stroke="none" 
	d="
M230.879974,338.740051 
	C230.647232,338.787750 230.450821,338.550568 230.148895,338.101929 
	C230.313843,338.095673 230.604813,338.283905 230.879974,338.740051 
z"/>
<path fill="#43AD9F" opacity="1.000000" stroke="none" 
	d="
M123.003891,99.264023 
	C123.162460,99.240189 123.411827,99.475906 123.831421,99.905380 
	C123.699326,99.907288 123.397003,99.715439 123.003891,99.264023 
z"/>
<path fill="#43AD9F" opacity="1.000000" stroke="none" 
	d="
M122.158829,98.262283 
	C122.382645,98.222893 122.568825,98.457413 122.856415,98.897369 
	C122.697334,98.899345 122.418449,98.710472 122.158829,98.262283 
z"/>
<path fill="#54B291" opacity="1.000000" stroke="none" 
	d="
M76.990448,136.291138 
	C77.140236,136.269852 77.388458,136.495850 77.799759,136.913773 
	C77.671516,136.916611 77.380203,136.727524 76.990448,136.291138 
z"/>
<path fill="#3AAAA8" opacity="1.000000" stroke="none" 
	d="
M353.998810,163.258972 
	C354.158325,163.234268 354.409546,163.470261 354.831665,163.901062 
	C354.698547,163.903793 354.394531,163.711731 353.998810,163.258972 
z"/>
<path fill="#67B981" opacity="1.000000" stroke="none" 
	d="
M167.872192,229.719025 
	C167.658554,229.753769 167.474930,229.519928 167.192490,229.083054 
	C167.345169,229.084305 167.614685,229.274429 167.872192,229.719025 
z"/>
<path fill="#54B291" opacity="1.000000" stroke="none" 
	d="
M181.227997,203.349976 
	C181.441513,203.309616 181.694824,203.586426 182.196075,204.005280 
	C182.051956,203.987274 181.659882,203.827225 181.227997,203.349976 
z"/>
<path fill="#46AE9D" opacity="1.000000" stroke="none" 
	d="
M380.019897,204.269318 
	C380.180023,204.242493 380.426758,204.472305 380.838074,204.894638 
	C380.703949,204.900101 380.405243,204.713028 380.019897,204.269318 
z"/>
<path fill="#3AAAA8" opacity="1.000000" stroke="none" 
	d="
M349.156738,155.258148 
	C349.390320,155.221207 349.569916,155.458511 349.835236,155.907196 
	C349.670135,155.906586 349.397400,155.711197 349.156738,155.258148 
z"/>
<path fill="#5BB58B" opacity="1.000000" stroke="none" 
	d="
M115.134338,202.276428 
	C115.349968,202.245941 115.529663,202.483521 115.801155,202.928070 
	C115.647095,202.923859 115.382248,202.727005 115.134338,202.276428 
z"/>
<path fill="#46AE9D" opacity="1.000000" stroke="none" 
	d="
M376.172302,201.251129 
	C376.397980,201.208679 376.582977,201.438629 376.861511,201.875397 
	C376.701233,201.879379 376.426727,201.693146 376.172302,201.251129 
z"/>
<path fill="#67B981" opacity="1.000000" stroke="none" 
	d="
M123.097237,216.286560 
	C123.329811,216.247482 123.520012,216.491547 123.809654,216.949799 
	C123.644737,216.950012 123.359985,216.751907 123.097237,216.286560 
z"/>
<path fill="#3AAAA8" opacity="1.000000" stroke="none" 
	d="
M348.184753,153.264526 
	C348.407410,153.229675 348.586853,153.463196 348.859863,153.901245 
	C348.701233,153.900650 348.430603,153.709671 348.184753,153.264526 
z"/>
<path fill="#5BB58B" opacity="1.000000" stroke="none" 
	d="
M114.132874,200.277618 
	C114.358025,200.243927 114.541473,200.484634 114.822006,200.934174 
	C114.661263,200.932190 114.385284,200.735199 114.132874,200.277618 
z"/>
<path fill="#54B291" opacity="1.000000" stroke="none" 
	d="
M161.139114,168.279816 
	C161.361404,168.241501 161.549362,168.478088 161.842865,168.919876 
	C161.684540,168.921188 161.403320,168.731064 161.139114,168.279816 
z"/>
<path fill="#5BB58B" opacity="1.000000" stroke="none" 
	d="
M179.139069,199.275330 
	C179.358704,199.240433 179.540115,199.475342 179.816650,199.915039 
	C179.660217,199.913773 179.389908,199.722214 179.139069,199.275330 
z"/>
<path fill="#3AAAA8" opacity="1.000000" stroke="none" 
	d="
M350.154541,157.258423 
	C350.382782,157.217880 350.569641,157.453751 350.857422,157.896729 
	C350.695343,157.899323 350.413605,157.709656 350.154541,157.258423 
z"/>
<path fill="#3AAAA8" opacity="1.000000" stroke="none" 
	d="
M350.999146,158.266678 
	C351.162079,158.238571 351.411774,158.472305 351.830841,158.899353 
	C351.695465,158.904617 351.390656,158.716568 350.999146,158.266678 
z"/>
<path fill="#67B981" opacity="1.000000" stroke="none" 
	d="
M141.115219,247.280762 
	C141.348404,247.239075 141.539490,247.479858 141.836288,247.931030 
	C141.671204,247.933746 141.381592,247.741013 141.115219,247.280762 
z"/>
<path fill="#67B981" opacity="1.000000" stroke="none" 
	d="
M141.976227,248.264862 
	C142.141495,248.246887 142.379715,248.496628 142.777206,248.949799 
	C142.640717,248.946335 142.344955,248.739456 141.976227,248.264862 
z"/>
<path fill="#54B291" opacity="1.000000" stroke="none" 
	d="
M206.898895,183.747650 
	C206.698761,183.757370 206.661819,183.518723 206.792572,183.155014 
	C206.851013,183.044281 206.952789,183.513641 206.898895,183.747650 
z"/>
<path fill="#4CB098" opacity="1.000000" stroke="none" 
	d="
M182.854614,141.726135 
	C182.630005,141.758316 182.445541,141.514343 182.161743,141.059540 
	C182.321594,141.062943 182.599045,141.263351 182.854614,141.726135 
z"/>
<path fill="#67B981" opacity="1.000000" stroke="none" 
	d="
M238.737488,278.127441 
	C238.783722,278.957794 238.567444,279.915619 238.351151,280.873413 
	C238.013885,280.747894 237.676620,280.622375 237.339355,280.496887 
	C237.717896,279.749542 238.096436,279.002228 238.737488,278.127441 
z"/>
<path fill="#67B981" opacity="1.000000" stroke="none" 
	d="
M233.010513,278.305695 
	C233.611847,278.753479 234.223694,279.506989 234.835541,280.260468 
	C234.485794,280.471954 234.136047,280.683441 233.786301,280.894958 
	C233.531219,280.133759 233.276123,279.372589 233.010513,278.305695 
z"/>
</svg>